<svg width="459" height="369" viewBox="0 0 459 369" fill="none" xmlns="http://www.w3.org/2000/svg" focusable="false" aria-hidden="true">
<path d="M0.986786 75.6999C0.953866 75.5952 0.919138 75.4892 0.886078 75.3842C0.900368 75.4302 0.918271 75.4745 0.932281 75.5207L0.986786 75.6999Z" fill="#2F2E41"/>
<path d="M260.629 338.269H81.5018V340.282H260.629V338.269Z" fill="#3F3D56"/>
<path d="M260.629 352.358H81.5018V354.37H260.629V352.358Z" fill="#3F3D56"/>
<path d="M260.629 366.446H81.5018V368.459H260.629V366.446Z" fill="#3F3D56"/>
<path d="M125.435 287.715H85.1448V320.451H125.435V287.715Z" fill="#D0CDE1"/>
<path d="M119.559 315.415H77.5904V281H119.559V315.415ZM79.2692 313.736H117.881V282.679H79.2692V313.736Z" fill="#3F3D56"/>
<path d="M45.2408 306.558C49.6591 306.558 53.2408 302.976 53.2408 298.558C53.2408 294.14 49.6591 290.558 45.2408 290.558C40.8226 290.558 37.2408 294.14 37.2408 298.558C37.2408 302.976 40.8226 306.558 45.2408 306.558Z" fill="#6C63FF"/>
<path d="M260.629 57.2692H81.5018V59.2818H260.629V57.2692Z" fill="#3F3D56"/>
<path d="M260.629 71.3578H81.5018V73.3704H260.629V71.3578Z" fill="#3F3D56"/>
<path d="M260.629 85.4464H81.5018V87.4591H260.629V85.4464Z" fill="#3F3D56"/>
<path d="M125.435 6.71506H85.1448V39.4509H125.435V6.71506Z" fill="#D0CDE1"/>
<path d="M119.559 34.4146H77.5904V0H119.559V34.4146ZM79.2692 32.7359H117.881V1.67876H79.2692V32.7359Z" fill="#3F3D56"/>
<path d="M45.2408 25.558C49.6591 25.558 53.2408 21.9763 53.2408 17.558C53.2408 13.1397 49.6591 9.55798 45.2408 9.55798C40.8226 9.55798 37.2408 13.1397 37.2408 17.558C37.2408 21.9763 40.8226 25.558 45.2408 25.558Z" fill="#6C63FF"/>
<path d="M458.629 218.269H279.502V220.282H458.629V218.269Z" fill="#3F3D56"/>
<path d="M458.629 232.358H279.502V234.37H458.629V232.358Z" fill="#3F3D56"/>
<path d="M458.629 246.446H279.502V248.459H458.629V246.446Z" fill="#3F3D56"/>
<path d="M323.435 167.715H283.145V200.451H323.435V167.715Z" fill="#D0CDE1"/>
<path d="M317.559 195.415H275.59V161H317.559V195.415ZM277.269 193.736H315.881V162.679H277.269V193.736Z" fill="#3F3D56"/>
<path d="M243.241 186.558C247.659 186.558 251.241 182.976 251.241 178.558C251.241 174.14 247.659 170.558 243.241 170.558C238.823 170.558 235.241 174.14 235.241 178.558C235.241 182.976 238.823 186.558 243.241 186.558Z" fill="#6C63FF"/>
</svg>
